<svg width="118" height="41" viewBox="0 0 118 41" fill="none" xmlns="http://www.w3.org/2000/svg">
<path fill-rule="evenodd" clip-rule="evenodd" d="M110.623 0.760254H7.20029C1.02748 0.760254 0 2.92508 0 8.07343V33.493C0 38.6374 2.11421 40.7603 7.19321 40.7603H110.623C115.706 40.7603 117.895 38.6345 117.895 33.4864V8.07343C117.895 2.92508 115.706 0.760254 110.623 0.760254Z" fill="black"/>
<path fill-rule="evenodd" clip-rule="evenodd" d="M30.7372 25.6588C30.1434 26.9919 29.8592 27.5869 29.0948 28.765C28.0278 30.4101 26.5246 32.4585 24.6618 32.4756C23.0061 32.4912 22.5811 31.3843 20.3346 31.3968C18.0881 31.4092 17.6188 32.495 15.9631 32.4797C14.1001 32.4625 12.6755 30.6123 11.6086 28.9679C8.62559 24.3685 8.31395 18.9707 10.1533 16.1013C11.461 14.0619 13.523 12.8681 15.4627 12.8681C17.4371 12.8681 18.6785 13.965 20.311 13.965C21.8945 13.965 22.86 12.8663 25.1425 12.8663C26.868 12.8663 28.6964 13.8177 29.9993 15.4639C25.731 17.833 26.4241 24.008 30.7372 25.6588Z" fill="white"/>
<path fill-rule="evenodd" clip-rule="evenodd" d="M23.4108 11.0291C24.2397 9.95099 24.8701 8.4277 24.6415 6.87158C23.287 6.96605 21.7018 7.83911 20.7763 8.97735C19.9364 10.0109 19.2431 11.5435 19.5131 13.0328C20.9921 13.0791 22.5223 12.1844 23.4108 11.0291Z" fill="white"/>
<path fill-rule="evenodd" clip-rule="evenodd" d="M107.368 27.819H101.37C101.394 28.6425 101.684 29.3647 102.241 29.8384C102.746 30.2643 103.399 30.4585 104.202 30.4585C105.092 30.4585 105.898 30.3059 106.627 30.0142L106.941 31.4174C106.093 31.7955 105.085 31.9761 103.923 31.9761C102.531 31.9761 101.436 31.5618 100.64 30.7311C99.8449 29.9005 99.4439 28.7843 99.4439 27.3857C99.4439 26.0084 99.8157 24.8671 100.554 23.9508C101.335 22.9775 102.384 22.491 103.702 22.491C105.001 22.491 105.981 22.9772 106.645 23.9505C107.174 24.7276 107.441 25.723 107.441 26.8605C107.441 27.2202 107.415 27.5837 107.368 27.819ZM98.8457 24.4765C98.7296 24.4401 98.4214 24.4251 98.2008 24.4251C97.4977 24.4251 96.9486 24.6934 96.5652 25.2298C96.2311 25.7057 96.0581 26.2967 96.0581 27.0276V31.7014H94.0835V25.5618C94.0835 24.5182 94.0407 23.5837 94.0054 22.6425H95.7447L95.819 24.5249H95.8737C96.0827 23.9367 96.4141 23.4017 96.8732 23.0422C97.3174 22.7135 97.8163 22.5348 98.3342 22.5348C98.5172 22.5348 98.7296 22.5232 98.8457 22.5478V24.4765ZM91.6185 30.6294C90.7895 31.5518 89.6914 32.0137 88.3249 32.0137C87.0022 32.0137 85.9475 31.5703 85.1645 30.6828C84.3822 29.7979 83.9919 28.675 83.9919 27.327C83.9919 25.9163 84.395 24.7587 85.203 23.8602C86.0125 22.9568 87.0983 22.513 88.4675 22.513C89.7928 22.513 90.853 22.9519 91.6551 23.8437C92.4176 24.7011 92.8003 25.817 92.8003 27.1777C92.8005 28.5815 92.4083 29.7268 91.6185 30.6294ZM83.3974 24.2896H81.3067V28.6418C81.3067 29.7658 81.6511 30.323 82.4285 30.323C82.7863 30.323 83.0561 30.2965 83.2928 30.2348L83.3377 31.7683C82.9421 31.9182 82.419 31.9943 81.7774 31.9943C80.9915 31.9943 80.3493 31.7538 79.9064 31.2629C79.458 30.7778 79.216 29.9581 79.216 28.8083V24.2896H77.9383V22.6425H79.216V21.0289L81.3067 20.4288V22.6425H83.3974V24.2896ZM76.3716 30.8875C75.5555 31.6259 74.424 31.9929 72.9725 31.9929C71.6274 31.9929 70.5518 31.7292 69.7395 31.2067L70.2039 29.5198C71.0792 30.0423 72.041 30.3075 73.0874 30.3075C73.8433 30.3075 74.4279 30.1332 74.8479 29.7922C75.2651 29.4497 75.475 28.9908 75.475 28.4087C75.475 27.9032 75.3021 27.4717 74.9587 27.1197C74.6102 26.7705 74.0409 26.4479 73.2379 26.1452C71.0563 25.3228 69.9634 24.1168 69.9634 22.5298C69.9634 21.4929 70.3445 20.6403 71.1171 19.9787C71.8884 19.3179 72.9092 18.9856 74.1816 18.9856C75.3161 18.9856 76.2607 19.1871 77.0146 19.5843L76.5102 21.2348C75.807 20.8484 75.0078 20.6525 74.1164 20.6525C73.4117 20.6525 72.8592 20.8342 72.4617 21.1759C72.1294 21.4928 71.9625 21.8738 71.9625 22.3222C71.9625 22.8188 72.1539 23.2331 72.5356 23.5628C72.8697 23.8614 73.4747 24.1844 74.3475 24.5339C75.4247 24.9679 76.2116 25.4836 76.7193 26.0728C77.2238 26.6597 77.478 27.3896 77.478 28.263C77.4777 29.3391 77.1066 30.2163 76.3716 30.8875ZM64.8226 30.8169C64.0777 31.6134 63.1484 32.0136 62.0427 32.0136C60.8524 32.0136 60.0508 31.5834 59.47 30.7176V35.5837H57.4955V25.6901C57.4955 24.7162 57.4586 23.819 57.4105 22.6425H59.1641L59.2798 24.1719H59.3142C59.9851 23.1131 60.9932 22.5291 62.3505 22.5291C63.4123 22.5291 64.2976 22.9423 65.0067 23.7942C65.718 24.6419 66.0719 25.7591 66.0719 27.1454C66.0719 28.6992 65.6566 29.915 64.8226 30.8169ZM54.9402 30.8169C54.1972 31.6134 53.2694 32.0136 52.1667 32.0136C50.9728 32.0136 50.1778 31.5834 49.5971 30.7176V35.5837H47.6225V25.6901C47.6225 24.7162 47.5767 23.819 47.526 22.6425H49.2843L49.3947 24.1719H49.4296C50.0994 23.1131 51.1095 22.5291 52.4687 22.5291C53.5297 22.5291 54.4126 22.9423 55.1264 23.7942C55.8334 24.6419 56.1894 25.7591 56.1894 27.1454C56.1894 28.6992 55.7741 29.915 54.9402 30.8169ZM44.2508 31.7014L43.086 28.0543H39.0316L37.9196 31.7014H35.8488L39.8615 19.1131H42.3443L46.3811 31.7014H44.2508ZM103.554 23.8943C102.902 23.8943 102.372 24.2329 101.963 24.7795C101.63 25.2158 101.431 25.7014 101.37 26.4072H105.534C105.545 25.7014 105.419 25.2364 105.147 24.7967C104.801 24.2364 104.268 23.8943 103.554 23.8943ZM41.0483 20.8778H41.0134C40.8877 21.4661 40.6931 22.249 40.4191 23.3002L39.3825 26.6425H42.7314L41.6809 23.3002C41.5672 22.9612 41.3551 22.0543 41.0483 20.8778ZM61.7033 24.1196C61.208 24.1196 60.7656 24.2839 60.3629 24.6148C59.9618 24.9504 59.6915 25.3845 59.5674 25.9222C59.5059 26.1742 59.47 26.3784 59.47 26.5422V28.0583C59.47 28.7219 59.6745 29.283 60.0772 29.7391C60.4773 30.191 61.003 30.4205 61.6417 30.4205C62.3985 30.4205 62.9853 30.1287 63.4053 29.5398C63.8256 28.9521 64.0374 28.1776 64.0374 27.2127C64.0374 26.3277 63.8389 25.5957 63.4454 25.0224C63.0103 24.4251 62.4301 24.1196 61.7033 24.1196ZM88.3946 23.9936C87.5946 23.9936 86.9833 24.3531 86.5662 25.0771C86.2044 25.6728 86.0273 26.4003 86.0273 27.2604C86.0273 28.0989 86.2043 28.8136 86.5662 29.4108C86.9935 30.1334 87.5987 30.4929 88.3797 30.4929C89.1397 30.4929 89.7408 30.1284 90.1702 29.3882C90.5427 28.7836 90.7286 28.0581 90.7286 27.2255C90.7286 26.3918 90.5501 25.6728 90.1945 25.077C89.7692 24.3531 89.1729 23.9936 88.3946 23.9936ZM51.8183 24.1196C51.3257 24.1196 50.8806 24.2839 50.4783 24.6148C50.0763 24.9504 49.8139 25.3845 49.6898 25.9222C49.629 26.1742 49.5972 26.3784 49.5972 26.5422V28.0583C49.5972 28.7219 49.7954 29.283 50.199 29.7391C50.5991 30.191 51.1221 30.4205 51.7625 30.4205C52.5136 30.4205 53.1042 30.1287 53.5229 29.5398C53.9424 28.9521 54.1504 28.1776 54.1504 27.2127C54.1504 26.3277 53.9555 25.5957 53.5601 25.0224C53.126 24.4251 52.5471 24.1196 51.8183 24.1196Z" fill="white"/>
<path d="M38.4816 14.1533L37.9276 16.0014H36.7144L38.7778 9.47986H40.2776L42.3697 16.0014H41.1087L40.526 14.1533H38.4816ZM40.3254 13.2535L39.8191 11.6473C39.6949 11.2506 39.5898 10.8055 39.4942 10.4281H39.4752C39.3796 10.8055 39.284 11.2603 39.1695 11.6473L38.6727 13.2535H40.3254Z" fill="white"/>
<path d="M43.7076 11.2893L44.4624 13.6792C44.5961 14.0953 44.6915 14.4727 44.7775 14.8597H44.8062C44.8921 14.4727 44.9973 14.105 45.1214 13.6792L45.857 11.2893H47.0989L45.322 16.0014H44.1662L42.4371 11.2893H43.7076Z" fill="white"/>
<path d="M50.376 16.0015L50.2995 15.479H50.2709C49.9843 15.8466 49.497 16.1079 48.8953 16.1079C47.9591 16.1079 47.4336 15.421 47.4336 14.7049C47.4336 13.5149 48.4749 12.9149 50.1944 12.9245V12.8471C50.1944 12.5374 50.0703 12.0246 49.2487 12.0246C48.7901 12.0246 48.3125 12.1698 47.9973 12.373L47.768 11.599C48.1119 11.386 48.7137 11.1829 49.4493 11.1829C50.9395 11.1829 51.3694 12.1407 51.3694 13.1665V14.8694C51.3694 15.2951 51.3886 15.7112 51.4363 16.0015H50.376ZM50.2231 13.6986C49.392 13.6792 48.5991 13.8631 48.5991 14.5791C48.5991 15.0436 48.8953 15.2564 49.2678 15.2564C49.7359 15.2564 50.0798 14.9467 50.1849 14.6082C50.2135 14.5211 50.2231 14.4243 50.2231 14.3469V13.6986Z" fill="white"/>
<path d="M53.7962 9.13147H52.6117V16.0014H53.7962V9.13147Z" fill="white"/>
<path d="M56.3182 9.97343C56.3182 10.3314 56.0604 10.612 55.6495 10.612C55.2579 10.612 55 10.3314 55 9.97343C55 9.60578 55.2674 9.32507 55.6591 9.32507C56.0604 9.32507 56.3087 9.60578 56.3182 9.97343ZM55.0668 11.2893H56.2513V16.0014H55.0668V11.2893Z" fill="white"/>
<path d="M57.4744 16.0014C57.4935 15.6821 57.5126 15.1596 57.5126 14.6758V9.13147H58.6876V11.9375H58.7068C58.9934 11.4828 59.4997 11.1828 60.197 11.1828C61.3338 11.1828 62.1456 12.1406 62.1361 13.5728C62.1361 15.2661 61.0757 16.1078 60.0249 16.1078C59.4231 16.1078 58.8881 15.8756 58.5538 15.295H58.5347L58.4773 16.0014H57.4744ZM58.6876 14.0565C58.6876 14.1532 58.6972 14.2501 58.7163 14.3371C58.8405 14.8112 59.2512 15.1692 59.7575 15.1692C60.4931 15.1692 60.9422 14.5694 60.9422 13.6211C60.9422 12.789 60.5505 12.1117 59.767 12.1117C59.2894 12.1117 58.8595 12.4601 58.7259 12.9825C58.7068 13.0696 58.6876 13.1761 58.6876 13.2922V14.0565Z" fill="white"/>
<path d="M64.286 9.13147H63.1014V16.0014H64.286V9.13147Z" fill="white"/>
<path d="M66.3877 13.9792C66.4164 14.8307 67.0756 15.1984 67.8207 15.1984C68.3652 15.1984 68.757 15.121 69.1104 14.9855L69.2823 15.8079C68.881 15.9725 68.327 16.0982 67.6584 16.0982C66.149 16.0982 65.2604 15.1597 65.2604 13.718C65.2604 12.4118 66.0438 11.1829 67.5341 11.1829C69.0435 11.1829 69.5402 12.4407 69.5402 13.476C69.5402 13.6986 69.5211 13.8727 69.5021 13.9792H66.3877ZM68.4321 13.1471C68.4415 12.7117 68.2506 11.9957 67.4671 11.9957C66.741 11.9957 66.4354 12.6633 66.3876 13.1471H68.4321Z" fill="white"/>
<path d="M76.8867 13.6019C76.8867 15.3339 75.683 16.1079 74.4984 16.1079C73.18 16.1079 72.1675 15.1887 72.1675 13.6793C72.1675 12.1311 73.1705 11.1829 74.5749 11.1829C75.96 11.1829 76.8867 12.1699 76.8867 13.6019ZM73.3809 13.6503C73.3809 14.5598 73.8202 15.2467 74.5367 15.2467C75.2053 15.2467 75.6735 14.5792 75.6735 13.6309C75.6735 12.8956 75.3486 12.0538 74.5462 12.0538C73.7152 12.0538 73.3809 12.8665 73.3809 13.6503Z" fill="white"/>
<path d="M77.8521 12.6923C77.8521 12.1505 77.8423 11.6957 77.8138 11.2893H78.8455L78.9029 11.9957H78.9315C79.1322 11.6279 79.6385 11.1829 80.4122 11.1829C81.2241 11.1829 82.0649 11.715 82.0649 13.2051V16.0014H80.8899V13.3406C80.8899 12.6632 80.6416 12.1505 80.0016 12.1505C79.5335 12.1505 79.2087 12.4891 79.0844 12.8471C79.0463 12.9536 79.0367 13.0987 79.0367 13.2342V16.0014H77.8523V12.6923H77.8521Z" fill="white"/>
<path d="M86.6411 9.94434V11.2893H87.7588V12.1795H86.6411V14.2597C86.6411 14.8307 86.794 15.1306 87.2429 15.1306C87.4436 15.1306 87.5963 15.1015 87.7015 15.0726L87.7205 15.9821C87.5486 16.0497 87.2429 16.0982 86.8704 16.0982C86.4404 16.0982 86.0774 15.953 85.8578 15.7112C85.6093 15.4402 85.4947 15.0145 85.4947 14.3953V12.1795H84.826V11.2893H85.4947V10.2249L86.6411 9.94434Z" fill="white"/>
<path d="M88.6474 9.13147H89.8319V11.9375H89.8511C89.9943 11.7149 90.1854 11.5311 90.4338 11.3957C90.6631 11.2602 90.9401 11.1828 91.2362 11.1828C92.0292 11.1828 92.8601 11.7149 92.8601 13.2244V16.0014H91.6853V13.3598C91.6853 12.6729 91.4368 12.1601 90.7873 12.1601C90.3287 12.1601 90.004 12.4697 89.8798 12.8276C89.8417 12.9244 89.832 13.0503 89.832 13.1857V16.0014H88.6475V9.13147H88.6474Z" fill="white"/>
<path d="M94.9431 13.9792C94.9718 14.8307 95.631 15.1984 96.3761 15.1984C96.9206 15.1984 97.3124 15.121 97.6658 14.9855L97.8377 15.8079C97.4364 15.9725 96.8824 16.0982 96.2137 16.0982C94.7044 16.0982 93.8159 15.1597 93.8159 13.718C93.8159 12.4118 94.5992 11.1829 96.0895 11.1829C97.5989 11.1829 98.0956 12.4407 98.0956 13.476C98.0956 13.6986 98.0764 13.8727 98.0574 13.9792H94.9431ZM96.9875 13.1471C96.997 12.7117 96.806 11.9957 96.0226 11.9957C95.2966 11.9957 94.991 12.6633 94.9431 13.1471H96.9875Z" fill="white"/>
</svg>
