<svg width="118" height="41" viewBox="0 0 118 41" fill="none" xmlns="http://www.w3.org/2000/svg">
<g clip-path="url(#clip0_12_7762)">
<path d="M110.678 2.79545C112.782 2.79545 114.21 3.19563 115.043 4.01902C115.876 4.84194 116.281 6.25598 116.281 8.34174V33.2172C116.281 35.297 115.878 36.7031 115.048 37.516C114.218 38.3296 112.789 38.7251 110.679 38.7251H8.03336C5.93647 38.7251 4.52313 38.3331 3.71277 37.5266C2.90242 36.7203 2.50854 35.3128 2.50854 33.2238V8.34174C2.50854 5.95035 2.76986 4.63316 3.38229 3.93726C4.06792 3.15832 5.548 2.79545 8.04039 2.79545H110.678ZM110.678 1.18323H8.04039C1.91443 1.18323 0.894745 3.30227 0.894745 8.34174V33.2237C0.894745 38.2594 2.99291 40.3373 8.03336 40.3373H110.678C115.723 40.3373 117.895 38.2565 117.895 33.2172V8.34174C117.895 3.30227 115.722 1.18323 110.678 1.18323Z" fill="#626262"/>
<path d="M58.3775 23.6403C56.2166 23.6403 54.506 25.2595 54.506 27.5081C54.506 29.6668 56.2166 31.3759 58.3775 31.3759C60.5383 31.3759 62.2491 29.7568 62.2491 27.5081C62.2491 25.1694 60.5383 23.6403 58.3775 23.6403ZM58.3775 29.7568C57.207 29.7568 56.2166 28.7673 56.2166 27.4181C56.2166 26.0688 57.207 25.0794 58.3775 25.0794C59.5479 25.0794 60.5383 25.979 60.5383 27.4181C60.5383 28.7673 59.5479 29.7568 58.3775 29.7568ZM50.0042 23.6403C47.8433 23.6403 46.1326 25.2595 46.1326 27.5081C46.1326 29.6668 47.8433 31.3759 50.0042 31.3759C52.1651 31.3759 53.8757 29.7568 53.8757 27.5081C53.8757 25.1694 52.1651 23.6403 50.0042 23.6403ZM50.0042 29.7568C48.8336 29.7568 47.8433 28.7673 47.8433 27.4181C47.8433 26.0688 48.8336 25.0794 50.0042 25.0794C51.1747 25.0794 52.1651 25.979 52.1651 27.4181C52.1651 28.7673 51.1747 29.7568 50.0042 29.7568ZM40.0101 24.8096V26.4287H43.8817C43.7917 27.3283 43.4316 28.0479 42.9813 28.4976C42.4411 29.0374 41.5408 29.6668 40.0101 29.6668C37.5791 29.6668 35.7785 27.778 35.7785 25.3493C35.7785 22.9207 37.6692 21.0319 40.0101 21.0319C41.2707 21.0319 42.261 21.5716 42.9813 22.2011L44.1518 21.0319C43.1614 20.1322 41.9009 19.4127 40.1001 19.4127C36.8589 19.4127 34.0677 22.1112 34.0677 25.3493C34.0677 28.5874 36.8588 31.2861 40.1001 31.2861C41.9009 31.2861 43.1614 30.7462 44.2418 29.5769C45.3222 28.4976 45.6825 26.9685 45.6825 25.7991C45.6825 25.4392 45.6824 25.0795 45.5924 24.8096H40.0101ZM80.8865 26.0689C80.5264 25.1694 79.6259 23.6403 77.6452 23.6403C75.6643 23.6403 74.0438 25.1694 74.0438 27.5081C74.0438 29.6668 75.6644 31.3759 77.8253 31.3759C79.5361 31.3759 80.6166 30.2965 80.9766 29.6668L79.7161 28.7673C79.2658 29.397 78.7257 29.8467 77.8253 29.8467C76.9249 29.8467 76.3848 29.4869 75.9346 28.6774L81.0666 26.5186L80.8865 26.0689ZM75.6644 27.3282C75.6644 25.889 76.8349 25.0795 77.6454 25.0795C78.2755 25.0795 78.9058 25.4392 79.0859 25.889L75.6644 27.3282ZM71.4327 31.016H73.1436V19.7725H71.4327V31.016ZM68.7317 24.4498C68.2814 24.0001 67.5612 23.5503 66.6608 23.5503C64.77 23.5503 62.9693 25.2593 62.9693 27.4181C62.9693 29.5768 64.68 31.196 66.6608 31.196C67.5612 31.196 68.2814 30.7462 68.6417 30.2964H68.7317V30.8362C68.7317 32.2754 67.9213 33.0849 66.6608 33.0849C65.6704 33.0849 64.9501 32.3653 64.7701 31.7355L63.3295 32.3653C63.7796 33.3548 64.8601 34.6139 66.751 34.6139C68.7318 34.6139 70.3523 33.4447 70.3523 30.6562V23.8202H68.7317V24.4498ZM66.7509 29.7568C65.5804 29.7568 64.59 28.7673 64.59 27.4181C64.59 26.0688 65.5804 25.0794 66.7509 25.0794C67.9212 25.0794 68.8217 26.0688 68.8217 27.4181C68.8217 28.7673 67.9213 29.7568 66.7509 29.7568ZM88.7197 19.7725H84.668V31.016H86.3787V26.7885H88.7197C90.6103 26.7885 92.411 25.4392 92.411 23.2805C92.411 21.1217 90.6105 19.7725 88.7197 19.7725ZM88.8097 25.1694H86.3787V21.3017H88.8097C90.0703 21.3017 90.7906 22.3811 90.7906 23.1904C90.7005 24.18 89.9802 25.1694 88.8097 25.1694ZM99.1639 23.5504C97.9033 23.5504 96.6428 24.0901 96.1928 25.2595L97.7232 25.8891C98.0835 25.2595 98.6237 25.0796 99.2539 25.0796C100.154 25.0796 100.965 25.6194 101.055 26.5187V26.6087C100.784 26.4287 100.064 26.159 99.344 26.159C97.7231 26.159 96.1027 27.0586 96.1027 28.6775C96.1027 30.2067 97.4532 31.1961 98.8937 31.1961C100.064 31.1961 100.604 30.6563 101.055 30.1168H101.145V31.0161H102.765V26.6987C102.585 24.7197 101.055 23.5504 99.1639 23.5504ZM98.9837 29.7568C98.4435 29.7568 97.6331 29.4869 97.6331 28.7673C97.6331 27.8678 98.6236 27.598 99.4339 27.598C100.154 27.598 100.514 27.778 100.964 27.9579C100.785 29.0373 99.8841 29.7568 98.9837 29.7568ZM108.438 23.8202L106.547 28.6774H106.457L104.476 23.8202H102.675L105.647 30.6562L103.936 34.4342H105.647L110.238 23.8202H108.438ZM93.3115 31.016H95.0222V19.7725H93.3115V31.016Z" fill="#626262"/>
<path d="M37.2078 13.0939H40.0131C40.0291 13.1578 40.0422 13.235 40.0531 13.3255C40.0636 13.416 40.069 13.5065 40.069 13.5969C40.069 13.9643 40.0131 14.3103 39.9011 14.6349C39.7893 14.9596 39.6134 15.2497 39.3737 15.5051C39.118 15.7767 38.8115 15.987 38.4546 16.1359C38.0976 16.2849 37.69 16.3595 37.2318 16.3595C36.8163 16.3595 36.4246 16.2849 36.057 16.1359C35.6894 15.987 35.3696 15.7794 35.0979 15.5132C34.8261 15.247 34.6104 14.9316 34.4506 14.567C34.2907 14.2024 34.2108 13.8046 34.2108 13.3734C34.2108 12.9422 34.2907 12.5444 34.4506 12.1798C34.6104 11.8152 34.8261 11.4998 35.0979 11.2335C35.3696 10.9675 35.6894 10.7599 36.057 10.6108C36.4246 10.4618 36.8163 10.3872 37.2318 10.3872C37.6953 10.3872 38.1096 10.467 38.4745 10.6267C38.8395 10.7865 39.1526 11.0073 39.4137 11.2895L38.6704 12.016C38.4838 11.8192 38.276 11.6687 38.047 11.5649C37.8178 11.4611 37.5435 11.4092 37.2239 11.4092C36.9628 11.4092 36.7149 11.4559 36.4805 11.5489C36.246 11.6421 36.0409 11.7738 35.8652 11.9442C35.6894 12.1146 35.5494 12.3208 35.4456 12.5629C35.3417 12.8052 35.2897 13.0754 35.2897 13.3734C35.2897 13.6715 35.3417 13.9416 35.4456 14.1838C35.5494 14.4261 35.6905 14.6322 35.8692 14.8025C36.0476 14.973 36.2541 15.1047 36.4885 15.1979C36.7229 15.291 36.9733 15.3376 37.2398 15.3376C37.5435 15.3376 37.8006 15.2937 38.011 15.2058C38.2214 15.1179 38.4013 15.005 38.5505 14.8664C38.657 14.7706 38.7489 14.6496 38.8262 14.5031C38.9034 14.3569 38.9633 14.1931 39.0061 14.0121H37.2078V13.0939Z" fill="#626262"/>
<path d="M42.0431 11.5369V12.8623H44.3367V13.8843H42.0431V15.2098H44.5925V16.2317H40.9641V10.5149H44.5925V11.5369H42.0431Z" fill="#626262"/>
<path d="M46.7982 16.2317V11.5369H45.1998V10.5149H49.4756V11.5369H47.8772V16.2317H46.7982Z" fill="#626262"/>
<path d="M53.0799 10.5149H52.001V16.2317H53.0799V10.5149Z" fill="#626262"/>
<path d="M55.4455 16.2317V11.5369H53.847V10.5149H58.1229V11.5369H56.5244V16.2317H55.4455Z" fill="#626262"/>
<path d="M63.1977 16.3596C62.7714 16.3596 62.3758 16.2823 62.0109 16.128C61.6458 15.9737 61.3303 15.7621 61.0638 15.4932C60.7973 15.2245 60.5883 14.9078 60.4365 14.5431C60.2847 14.1786 60.2086 13.7885 60.2086 13.3734C60.2086 12.9581 60.2846 12.5683 60.4365 12.2037C60.5884 11.8391 60.7974 11.5224 61.0638 11.2535C61.3303 10.9848 61.6458 10.7732 62.0109 10.6188C62.3758 10.4645 62.7714 10.3872 63.1977 10.3872C63.6239 10.3872 64.0196 10.4645 64.3847 10.6188C64.7495 10.7732 65.0651 10.9848 65.3317 11.2535C65.5981 11.5224 65.8072 11.8391 65.959 12.2037C66.1108 12.5683 66.1869 12.9581 66.1869 13.3734C66.1869 13.7885 66.111 14.1786 65.959 14.5431C65.8072 14.9078 65.598 15.2245 65.3317 15.4932C65.0651 15.7621 64.7495 15.9737 64.3847 16.128C64.0196 16.2823 63.6239 16.3596 63.1977 16.3596ZM63.1977 15.3375C63.4642 15.3375 63.7133 15.2896 63.9449 15.1938C64.1767 15.098 64.3792 14.965 64.5524 14.7946C64.7255 14.6243 64.8614 14.4181 64.96 14.1758C65.0585 13.9336 65.1079 13.6661 65.1079 13.3734C65.1079 13.0807 65.0585 12.8133 64.96 12.571C64.8614 12.3288 64.7255 12.1227 64.5524 11.9522C64.3792 11.7819 64.1767 11.6488 63.9449 11.553C63.7132 11.4571 63.4641 11.4092 63.1977 11.4092C62.9313 11.4092 62.6822 11.4571 62.4505 11.553C62.2187 11.6488 62.0162 11.7819 61.843 11.9522C61.6698 12.1227 61.534 12.3288 61.4356 12.571C61.3369 12.8133 61.2877 13.0807 61.2877 13.3734C61.2877 13.6661 61.3369 13.9336 61.4356 14.1758C61.534 14.4181 61.6698 14.6243 61.843 14.7946C62.0162 14.965 62.2187 15.098 62.4505 15.1938C62.6823 15.2896 62.9313 15.3375 63.1977 15.3375Z" fill="#626262"/>
<path d="M67.058 10.5149H68.3127L70.6144 14.3474H70.6784L70.6144 13.2455V10.5149H71.6854V16.2317H70.5504L68.1209 12.1837H68.0569L68.1209 13.2855V16.2317H67.058V10.5149Z" fill="#626262"/>
<path fill-rule="evenodd" clip-rule="evenodd" d="M25.8782 17.3125L11.8732 9.2627L22.9358 20.2574L25.8782 17.3125Z" fill="#626262"/>
<path fill-rule="evenodd" clip-rule="evenodd" d="M10.5738 9.34485C10.5204 9.44181 10.4622 9.55386 10.4622 9.67731V32.4565C10.4622 32.5279 10.4995 32.5952 10.5186 32.6586L22.234 20.9336L10.5738 9.34485Z" fill="#626262"/>
<path fill-rule="evenodd" clip-rule="evenodd" d="M22.9381 21.6072L11.4522 33.1023C11.4858 33.0895 11.5191 33.0744 11.5517 33.0557L26.0642 24.7139L22.9381 21.6072Z" fill="#626262"/>
<path fill-rule="evenodd" clip-rule="evenodd" d="M31.3671 20.4675L26.7364 17.8058L23.6136 20.9311L26.9232 24.2204L31.3671 21.6661C31.8298 21.4004 31.8298 20.7334 31.3671 20.4675Z" fill="#626262"/>
</g>
<defs>
<clipPath id="clip0_12_7762">
<rect width="117" height="40" fill="white" transform="translate(0.894745 0.760254)"/>
</clipPath>
</defs>
</svg>
