<svg width="120" height="24" viewBox="0 0 120 24" fill="none" xmlns="http://www.w3.org/2000/svg">
<path d="M1.26926 13.1721C2.25528 10.5742 5.95284 8.57166 7.67838 7.89513C15.5665 4.64784 28.2615 3.02403 33.5613 3.83593C38.8612 4.64784 33.0683 6.27138 28.015 7.89506C22.9616 9.51874 26.6592 10.3306 31.2195 9.51874C35.7799 8.7069 45.2703 7.89506 53.4049 7.48914C61.5396 7.08322 53.2817 6.27138 45.2703 6.27138C37.2589 6.27138 37.3821 4.64777 40.2169 3.83593C43.0517 3.02409 49.4608 -0.223264 56.9792 0.182656C64.4976 0.588575 82.2459 1.40041 89.8876 4.24185C97.5292 7.08329 113.305 14.7958 117.126 17.2313C120.947 19.6668 120.454 26.5674 113.675 22.5082C106.896 18.449 92.8456 11.1425 62.0326 9.92473C31.2195 8.70697 7.80161 15.6076 5.33657 18.449C2.87152 21.2905 1.14599 21.2905 2.13201 18.855C3.11803 16.4194 3.36455 16.0135 2.37853 16.8254C1.39251 17.6372 0.0367399 16.4194 1.26926 13.1721Z" fill="#EC9E40"/>
</svg>
