<svg width="24" height="25" viewBox="0 0 24 25" fill="none" xmlns="http://www.w3.org/2000/svg">
<path d="M11 4.52039H4C3.46957 4.52039 2.96086 4.7311 2.58579 5.10617C2.21071 5.48124 2 5.98995 2 6.52039V20.5204C2 21.0508 2.21071 21.5595 2.58579 21.9346C2.96086 22.3097 3.46957 22.5204 4 22.5204H18C18.5304 22.5204 19.0391 22.3097 19.4142 21.9346C19.7893 21.5595 20 21.0508 20 20.5204V13.5204" stroke="#14222D" stroke-width="2" stroke-linecap="round" stroke-linejoin="round"/>
<path d="M18.5 3.02038C18.8978 2.62256 19.4374 2.39906 20 2.39906C20.5626 2.39906 21.1022 2.62256 21.5 3.02038C21.8978 3.41821 22.1213 3.95777 22.1213 4.52038C22.1213 5.08299 21.8978 5.62256 21.5 6.02038L12 15.5204L8 16.5204L9 12.5204L18.5 3.02038Z" stroke="#14222D" stroke-width="2" stroke-linecap="round" stroke-linejoin="round"/>
</svg>
