<svg width="112" height="104" viewBox="0 0 112 104" fill="none" xmlns="http://www.w3.org/2000/svg">
<path d="M30.3509 35.7563C28.3034 34.2673 25.8492 33.4407 23.3181 33.3876C22.0897 33.3774 20.8708 33.6037 19.7278 34.0541C18.6384 34.4848 17.6448 35.1265 16.8041 35.9422C15.9611 36.7617 15.2938 37.7441 14.8425 38.8297C14.3586 40.0157 14.1192 41.2871 14.1388 42.5678C14.1238 43.8241 14.3632 45.0703 14.8425 46.2316C15.2897 47.3103 15.9435 48.2912 16.7669 49.1191C17.5991 49.9455 18.5951 50.5887 19.6907 51.0072C20.8466 51.4552 22.0766 51.6813 23.3163 51.6738C25.8904 51.6536 28.3771 50.7375 30.3491 49.0828V60.4831C27.3952 61.8357 24.1948 62.5666 20.9466 62.6306C18.2549 62.6433 15.5835 62.1667 13.0623 61.2241C10.6152 60.3239 8.37081 58.9479 6.45859 57.1754C4.54637 55.403 3.00426 53.2693 1.92133 50.8975C0.759187 48.3289 0.177987 45.5355 0.219145 42.7166C0.183897 39.8819 0.738569 37.071 1.8479 34.4622C2.88448 32.0408 4.39465 29.851 6.28973 28.0216C8.22138 26.1849 10.4989 24.7506 12.9897 23.8019C15.6463 22.7782 18.4716 22.2632 21.3185 22.2838C24.4501 22.2552 27.5443 22.9655 30.35 24.3569L30.3509 35.7563Z" fill="#255448"/>
<path d="M51.3741 0V61.4415H37.9751V0H51.3741Z" fill="#3878AA"/>
<path d="M73.9525 23.467V61.4432H60.5534V23.467H73.9525Z" fill="#F3CC50"/>
<path d="M81.6508 24.3558C84.4565 22.9644 87.5508 22.2541 90.6825 22.2827C93.529 22.262 96.3539 22.7767 99.0102 23.7999C101.501 24.7487 103.779 26.1829 105.71 28.0195C107.605 29.849 109.115 32.0388 110.152 34.4602C111.261 37.069 111.816 39.8799 111.781 42.7145C111.822 45.5336 111.24 48.327 110.078 50.8955C108.995 53.2672 107.453 55.4008 105.54 57.1733C103.628 58.9457 101.384 60.3218 98.9368 61.222C96.4159 62.1646 93.7447 62.6412 91.0533 62.6286C87.8055 62.5647 84.6054 61.8341 81.6518 60.482V49.0808C83.6237 50.7355 86.1105 51.6516 88.6846 51.6717C89.9243 51.6793 91.1543 51.4531 92.3103 51.0052C93.4059 50.5866 94.4018 49.9434 95.234 49.117C96.0576 48.2892 96.7113 47.3083 97.1584 46.2295C97.6378 45.0683 97.8771 43.822 97.8621 42.5658C97.8816 41.2851 97.6423 40.0136 97.1584 38.8277C96.7072 37.7421 96.0398 36.7596 95.1968 35.9402C94.3561 35.1244 93.3625 34.4827 92.2731 34.052C91.1301 33.6016 89.9113 33.3753 88.6828 33.3855C86.1517 33.4387 83.6975 34.2653 81.6499 35.7542L81.6508 24.3558Z" fill="#EC9E40"/>
<path d="M74.8031 7.34863C74.8094 8.35362 74.6078 9.34906 74.211 10.2724C73.4343 12.0856 71.9895 13.5304 70.1762 14.307C69.251 14.6977 68.2569 14.899 67.2526 14.899C66.2482 14.899 65.254 14.6977 64.3288 14.307C62.5155 13.5304 61.0707 12.0856 60.294 10.2724C59.8967 9.34923 59.695 8.35367 59.7019 7.34863H74.8031Z" fill="#DC9CB2"/>
<path d="M46.7286 104L43.7035 103.617L45.3331 90.7645L48.3583 91.1486L48.2374 92.1014C48.6 91.743 49.0425 91.4759 49.5285 91.3221C50.0145 91.1682 50.5301 91.132 51.0328 91.2164C51.6237 91.2866 52.1926 91.4832 52.7007 91.7928C53.1903 92.0914 53.6166 92.483 53.9557 92.9455C54.2976 93.4164 54.5446 93.9494 54.6826 94.5148C54.8301 95.113 54.8638 95.7337 54.7822 96.3444C54.7108 96.9509 54.524 97.5381 54.2318 98.0744C53.9564 98.5796 53.5884 99.0284 53.1469 99.3973C52.7018 99.7682 52.1844 100.042 51.6276 100.203C51.0707 100.363 50.4867 100.405 49.9126 100.327C49.4129 100.277 48.9293 100.122 48.4928 99.8737C48.0564 99.6252 47.6768 99.2881 47.3784 98.8841L46.7286 104ZM51.6222 95.9427C51.6567 95.6825 51.6413 95.4181 51.5767 95.1637C51.5148 94.9171 51.4024 94.6861 51.2467 94.4851C51.0887 94.2826 50.8945 94.111 50.674 93.9793C50.4425 93.8414 50.1848 93.7537 49.9173 93.7218C49.6593 93.6871 49.397 93.7057 49.1466 93.7766C48.9051 93.8445 48.6797 93.9603 48.4838 94.1169C48.2851 94.2769 48.1166 94.4711 47.9864 94.6905C47.8495 94.9175 47.7624 95.171 47.7308 95.4342C47.696 95.6925 47.7147 95.9551 47.7856 96.2058C47.8534 96.4473 47.9691 96.6728 48.1258 96.8686C48.2857 97.0674 48.4801 97.2359 48.6995 97.366C48.9266 97.5028 49.18 97.5899 49.4431 97.6216C49.7014 97.6561 49.964 97.6374 50.2148 97.5668C50.4563 97.4988 50.6816 97.3831 50.8776 97.2266C51.0745 97.0683 51.2425 96.877 51.3741 96.6613C51.5078 96.4425 51.5924 96.1974 51.6222 95.9427Z" fill="#D23833"/>
<path d="M56.9036 91.9312L59.9519 91.8532L59.9882 93.2681C60.2715 92.7731 60.6713 92.3548 61.153 92.0494C61.6489 91.7532 62.2153 91.5959 62.7929 91.5938L63.0542 91.5873C63.1644 91.5861 63.2745 91.5945 63.3833 91.6123L63.4586 94.5259C63.0456 94.3333 62.593 94.241 62.1376 94.2564C61.8411 94.242 61.5452 94.2952 61.2723 94.4117C60.9993 94.5283 60.7564 94.7054 60.5618 94.9294C60.1864 95.4728 60.0152 96.1314 60.0783 96.7887L60.1714 100.493L57.123 100.571L56.9036 91.9312Z" fill="#D23833"/>
<path d="M64.0006 88.2971C63.97 88.0705 63.9869 87.8401 64.0499 87.6203C64.1727 87.1885 64.4569 86.8207 64.8437 86.593C65.0412 86.4779 65.2599 86.4035 65.4866 86.3743C65.7134 86.345 65.9436 86.3616 66.1639 86.4229C66.5958 86.5458 66.9639 86.8301 67.192 87.2169C67.3068 87.4145 67.381 87.6331 67.41 87.8599C67.4391 88.0866 67.4225 88.3167 67.3612 88.5369C67.2381 88.9685 66.9539 89.3363 66.5673 89.5642C66.3697 89.6792 66.1512 89.7533 65.9244 89.7824C65.6977 89.8114 65.4675 89.7948 65.2473 89.7335C64.8156 89.6106 64.4477 89.3263 64.22 88.9395C64.1032 88.7429 64.0285 88.5241 64.0006 88.2971ZM67.6486 91.179L68.7492 99.7514L65.725 100.14L64.6244 91.5676L67.6486 91.179Z" fill="#D23833"/>
<path d="M69.5924 91.0006L72.5422 90.2262L72.821 91.2851C73.0295 90.7767 73.3603 90.3277 73.7842 89.978C74.2001 89.679 74.6703 89.4637 75.1684 89.344C75.6814 89.1951 76.2202 89.1574 76.7489 89.2333C77.2093 89.3106 77.6465 89.4905 78.0281 89.7595C78.3336 89.9713 78.5859 90.2511 78.7652 90.5767C78.9591 90.9422 79.1078 91.3299 79.2078 91.7313L80.6023 97.0433L77.6533 97.8187L76.5443 93.599C76.4632 93.2606 76.3447 92.9323 76.191 92.6201C76.0846 92.4029 75.919 92.2201 75.7132 92.093C75.5572 91.9995 75.3814 91.9442 75.2001 91.9313C75.0173 91.9202 74.834 91.9387 74.6572 91.9861C74.441 92.0282 74.2366 92.1172 74.0584 92.2469C73.8803 92.3765 73.7328 92.5435 73.6262 92.7363C73.434 93.1735 73.4115 93.6667 73.563 94.1197L74.7362 98.5819L71.7864 99.3563L69.5924 91.0006Z" fill="#D23833"/>
<path d="M84.2855 88.9435L86.6329 94.5725L83.8189 95.7457L81.4715 90.1167L80.5418 90.5062L79.5629 88.1589L80.4926 87.7702L79.4941 85.3755L82.3082 84.2013L83.3066 86.5961L84.9084 85.9277L85.8873 88.2751L84.2855 88.9435Z" fill="#D23833"/>
<path d="M33.4987 95.5495C34.236 95.3039 34.9512 94.9967 35.6369 94.631L36.5396 96.917C36.2586 97.0718 35.9698 97.2118 35.6741 97.3363C35.3643 97.4683 35.0156 97.5988 34.6283 97.7277L34.3187 97.8318L35.5718 101.538L32.0336 99.9254L31.5325 98.4882C30.0738 98.7884 28.5586 98.6466 27.1808 98.081C26.6992 97.8684 26.2587 97.5729 25.8793 97.208C25.538 96.8791 25.2645 96.4866 25.0742 96.0525C24.8884 95.6262 24.7958 95.1652 24.8026 94.7002C24.8093 94.2353 24.9152 93.7772 25.1133 93.3565C25.2744 92.9863 25.4977 92.6464 25.7733 92.3515C26.0536 92.0705 26.3892 91.8508 26.7588 91.7063C27.0581 91.5777 27.3727 91.4883 27.6949 91.4405C28.0687 91.3901 28.4455 91.3659 28.8226 91.3679L29.1945 91.3615L29.1015 91.0574C28.854 90.2721 28.8812 89.4259 29.1787 88.6581C29.363 88.2458 29.6374 87.8801 29.9819 87.5881C30.3183 87.303 30.7102 87.0909 31.1328 86.9651C31.5756 86.8369 32.0385 86.7927 32.4975 86.835C33.0006 86.8796 33.492 87.0117 33.9496 87.2255C34.4158 87.4321 34.8424 87.7183 35.2102 88.0714C35.5442 88.3917 35.8134 88.7734 36.0032 89.1954C36.1829 89.5962 36.2779 90.0298 36.2821 90.469C36.2844 90.9186 36.187 91.3631 35.9967 91.7705C35.8769 92.0387 35.7205 92.289 35.5319 92.5142C35.3512 92.7241 35.1323 92.8976 34.8867 93.0256C34.6047 93.1707 34.3036 93.2752 33.9924 93.3361C33.5938 93.4144 33.1898 93.4614 32.7839 93.4764L33.4987 95.5495ZM29.8731 93.4262C28.9918 93.5383 28.4545 93.8074 28.2611 94.2331C28.1919 94.3812 28.1599 94.544 28.1681 94.7073C28.1756 94.8675 28.2178 95.0242 28.2918 95.1665C28.3683 95.3157 28.4695 95.4508 28.5911 95.5662C28.7224 95.6917 28.8743 95.7937 29.0401 95.8675C29.58 96.0955 30.1734 96.1656 30.7516 96.0701L29.8731 93.4262ZM32.1322 91.5828C32.4602 91.5905 32.7844 91.5113 33.0719 91.3533C33.3595 91.1952 33.6001 90.964 33.7693 90.6828C33.892 90.4242 33.9106 90.1283 33.8213 89.8563C33.7618 89.6596 33.6435 89.4858 33.4823 89.3583C33.321 89.2308 33.1246 89.1558 32.9194 89.1433C32.7142 89.1309 32.5102 89.1816 32.3347 89.2886C32.1592 89.3956 32.0207 89.5538 31.9378 89.742C31.7964 90.3601 31.8648 91.0078 32.1322 91.5828Z" fill="#D23833"/>
</svg>
