<svg width="24" height="25" viewBox="0 0 24 25" fill="none" xmlns="http://www.w3.org/2000/svg">
<path d="M12.308 15.9914L12.384 14.9274L13.311 14.3984C14.2011 13.8826 15.0189 13.2511 15.743 12.5204C18.383 9.87939 19.189 6.77439 18.218 5.80239C17.246 4.83239 14.141 5.63639 11.5 8.27739C10.74 9.03739 10.103 9.86739 9.62201 10.7094L9.092 11.6364L8.02901 11.7124C7.15666 11.7736 6.32888 12.1209 5.67401 12.7004C6.92396 13.2504 8.06038 14.0287 9.02501 14.9954C10.005 15.9754 10.777 17.1124 11.32 18.3464C11.8995 17.6915 12.2468 16.8637 12.308 15.9914ZM9.335 18.8204C9.13389 19.0938 8.91225 19.3516 8.672 19.5914C7.5 20.7634 5.73201 21.1164 3.368 20.6514C2.904 18.2884 3.25801 16.5204 4.428 15.3484C4.676 15.1024 4.93401 14.8804 5.20001 14.6854C4.38021 14.2849 3.50414 14.0118 2.60201 13.8754C2.89244 12.9637 3.39761 12.1351 4.07501 11.4594C5.0934 10.4385 6.44657 9.82012 7.885 9.71839C8.48879 8.67358 9.22858 7.71353 10.085 6.86339C13.405 3.54339 17.679 2.43639 19.632 4.38839C21.584 6.34139 20.476 10.6154 17.157 13.9344C16.3069 14.7908 15.3468 15.5306 14.302 16.1344C14.2003 17.5728 13.5819 18.926 12.561 19.9444C11.8858 20.6227 11.0571 21.1283 10.145 21.4184C10.0086 20.5163 9.73549 19.6402 9.335 18.8204ZM7.61001 16.4104C7.44898 16.249 7.26742 16.1095 7.07001 15.9954C6.63801 16.1454 6.13 16.4754 5.665 16.9394C5.446 17.1594 5.178 17.8984 5.175 18.8444C6.12101 18.8414 6.863 18.5704 7.08 18.3544C7.545 17.8884 7.875 17.3814 8.024 16.9494C7.91026 16.752 7.77106 16.5705 7.61001 16.4094V16.4104ZM15.388 8.63039C15.2903 8.53867 15.2121 8.42824 15.1579 8.30569C15.1037 8.18313 15.0748 8.05093 15.0727 7.91695C15.0706 7.78298 15.0955 7.64994 15.1458 7.52576C15.1961 7.40158 15.2709 7.28878 15.3657 7.19407C15.4605 7.09935 15.5733 7.02465 15.6975 6.9744C15.8218 6.92415 15.9548 6.89938 16.0888 6.90156C16.2228 6.90373 16.3549 6.93281 16.4775 6.98707C16.6 7.04132 16.7103 7.11965 16.802 7.21739C16.9744 7.40756 17.0671 7.65674 17.0609 7.91337C17.0547 8.16999 16.95 8.41439 16.7686 8.59596C16.5871 8.77754 16.3428 8.88239 16.0862 8.88879C15.8295 8.8952 15.5803 8.80268 15.39 8.63039H15.388Z" fill="#14222D"/>
</svg>
